<?xml version="1.0" standalone="no"?>
<!DOCTYPE svg PUBLIC "-//W3C//DTD SVG 20010904//EN"
 "http://www.w3.org/TR/2001/REC-SVG-20010904/DTD/svg10.dtd">
<svg version="1.0" xmlns="http://www.w3.org/2000/svg"
 width="235.000000pt" height="235.000000pt" viewBox="0 0 235.000000 235.000000"
 preserveAspectRatio="xMidYMid meet">
<metadata>
Created by potrace 1.11, written by Peter Selinger 2001-2013
</metadata>
<g transform="translate(0.000000,235.000000) scale(0.100000,-0.100000)"
fill="#000000" stroke="none">
<path d="M1015 2304 c-11 -3 -47 -9 -80 -16 -199 -37 -408 -152 -566 -308
-219 -219 -329 -485 -329 -800 0 -316 111 -583 334 -806 220 -219 482 -324
805 -324 310 1 572 110 792 329 219 220 329 488 329 803 -1 474 -274 875 -718
1052 -131 53 -264 76 -420 75 -70 -1 -136 -3 -147 -5z m390 -473 l130 -29 33
29 c79 69 205 3 188 -99 -10 -62 -73 -109 -131 -98 -41 8 -84 47 -91 84 -6 28
-10 30 -114 51 -59 13 -115 23 -125 24 -15 2 -23 -20 -50 -138 -18 -77 -35
-157 -39 -177 l-7 -38 48 0 c69 0 191 -34 272 -74 l70 -36 41 21 c75 39 169 9
204 -65 30 -64 15 -141 -36 -183 -20 -16 -23 -27 -23 -93 0 -65 -5 -85 -33
-142 -146 -297 -653 -389 -982 -178 -127 82 -209 230 -193 351 5 34 2 42 -21
60 -55 43 -71 119 -40 185 36 75 129 104 204 65 l41 -21 72 35 c85 42 202 75
269 75 41 0 48 3 53 23 54 245 86 380 90 388 9 13 27 11 170 -20z"/>
<path d="M859 1157 c-81 -54 -54 -181 42 -201 116 -23 179 142 77 204 -43 26
-77 25 -119 -3z"/>
<path d="M1363 1160 c-39 -23 -53 -48 -53 -92 0 -83 81 -137 154 -103 84 40
87 158 6 200 -39 20 -68 19 -107 -5z"/>
<path d="M913 823 c-8 -22 37 -58 102 -80 72 -26 242 -25 312 1 68 25 108 58
100 79 -8 21 -40 22 -57 3 -22 -28 -111 -49 -200 -49 -89 0 -178 21 -200 49
-17 19 -49 18 -57 -3z"/>
</g>
</svg>
